<?xml version="1.0" standalone="no"?>
<!DOCTYPE svg PUBLIC "-//W3C//DTD SVG 20010904//EN"
 "http://www.w3.org/TR/2001/REC-SVG-20010904/DTD/svg10.dtd">
<svg version="1.0" xmlns="http://www.w3.org/2000/svg"
 width="742.000000pt" height="742.000000pt" viewBox="0 0 742.000000 742.000000"
 preserveAspectRatio="xMidYMid meet">
<metadata>
Created by potrace 1.14, written by Peter Selinger 2001-2017
</metadata>
<g transform="translate(0.000000,742.000000) scale(0.100000,-0.100000)"
fill="#000000" stroke="none">
<path d="M2700 7409 c0 -5 -4 -8 -8 -5 -10 6 -52 -30 -52 -45 0 -6 -4 -7 -10
-4 -5 3 -10 -3 -10 -14 0 -12 -4 -21 -9 -21 -4 0 -8 -10 -7 -22 1 -13 -3 -32
-9 -43 -7 -11 -11 -30 -10 -42 1 -13 -2 -23 -6 -23 -5 0 -9 -18 -9 -39 0 -22
-5 -43 -10 -46 -6 -4 -9 -22 -7 -40 3 -21 -1 -36 -8 -39 -7 -2 -11 -17 -9 -32
1 -16 -2 -34 -8 -42 -6 -7 -11 -28 -10 -47 1 -19 -3 -35 -8 -35 -5 0 -8 -12
-6 -27 1 -16 -3 -40 -10 -54 -7 -15 -10 -29 -7 -32 3 -4 2 -12 -4 -19 -5 -7
-10 -29 -12 -48 -2 -19 -6 -39 -10 -45 -4 -5 -7 -26 -7 -45 1 -19 -4 -41 -11
-48 -6 -6 -10 -24 -7 -38 3 -18 1 -23 -7 -18 -8 5 -10 -2 -7 -25 2 -17 1 -31
-3 -31 -5 0 -6 -7 -3 -15 4 -8 2 -15 -3 -15 -6 0 -9 -12 -8 -27 1 -16 -2 -36
-7 -46 -5 -10 -10 -32 -10 -48 -1 -16 -5 -32 -10 -35 -4 -3 -8 -20 -8 -39 0
-19 -4 -36 -9 -40 -5 -3 -8 -18 -6 -33 1 -15 -2 -36 -9 -47 -6 -11 -11 -30
-10 -42 1 -13 -3 -23 -8 -23 -5 0 -7 -12 -5 -27 2 -16 -1 -37 -8 -48 -6 -11
-11 -33 -10 -50 1 -16 -3 -33 -8 -36 -4 -3 -9 -20 -9 -37 -1 -18 -5 -32 -10
-32 -5 0 -8 -15 -6 -34 1 -19 -3 -40 -9 -48 -6 -7 -10 -28 -8 -46 1 -19 -3
-36 -10 -38 -7 -3 -11 -17 -9 -32 1 -14 -2 -32 -7 -39 -6 -6 -9 -20 -8 -30 2
-10 -1 -29 -5 -41 -4 -13 -9 -34 -11 -45 -11 -69 -19 -103 -27 -114 -5 -6 -7
-25 -5 -42 3 -19 0 -31 -8 -35 -9 -3 -12 -18 -9 -44 3 -28 -1 -42 -10 -45 -9
-4 -12 -14 -9 -26 3 -12 1 -27 -5 -34 -5 -6 -9 -23 -8 -37 1 -14 -3 -38 -10
-55 -6 -16 -9 -36 -7 -42 3 -7 0 -13 -6 -13 -6 0 -11 -18 -11 -39 0 -22 -4
-42 -9 -45 -5 -3 -8 -23 -8 -43 1 -21 -4 -44 -11 -52 -7 -7 -11 -20 -7 -29 3
-8 1 -20 -3 -26 -9 -10 -20 -69 -26 -128 -1 -15 -5 -31 -9 -34 -4 -4 -7 -20
-7 -35 0 -15 -4 -31 -10 -34 -5 -3 -10 -24 -10 -46 0 -21 -4 -39 -9 -39 -5 0
-7 -18 -6 -39 2 -26 -2 -41 -11 -45 -7 -3 -11 -14 -9 -27 3 -13 1 -27 -3 -33
-5 -6 -9 -26 -11 -45 -1 -19 -5 -39 -10 -45 -5 -6 -7 -23 -6 -38 2 -15 -1 -30
-6 -33 -5 -4 -9 -19 -9 -35 0 -16 -4 -31 -9 -34 -5 -3 -9 -22 -9 -41 0 -20 -4
-41 -9 -48 -5 -6 -9 -25 -8 -42 1 -16 -2 -32 -7 -35 -4 -3 -8 -20 -10 -38 -1
-18 -6 -32 -10 -32 -4 0 -6 -12 -4 -27 1 -16 -2 -37 -8 -48 -5 -11 -10 -32
-11 -47 0 -15 -4 -30 -8 -34 -4 -4 -7 -22 -7 -41 0 -18 -4 -33 -9 -33 -4 0 -7
-12 -7 -27 1 -16 -2 -36 -7 -46 -4 -10 -10 -33 -11 -51 -2 -18 -8 -41 -14 -52
-7 -13 -7 -25 -1 -37 7 -12 6 -17 -3 -17 -9 0 -13 -15 -14 -42 -1 -23 -5 -43
-10 -45 -5 -2 -9 -19 -8 -38 1 -19 -2 -38 -7 -41 -13 -8 -11 -54 2 -54 6 0 9
-9 6 -20 -3 -11 -1 -20 4 -20 5 0 9 -6 9 -14 0 -18 57 -76 75 -76 8 0 15 -3
15 -8 0 -4 321 -7 713 -7 561 0 715 -3 725 -13 8 -6 17 -10 21 -8 11 7 64 -42
57 -52 -3 -6 1 -13 10 -16 8 -3 12 -10 9 -16 -3 -5 -2 -10 4 -10 12 0 13 -108
1 -115 -4 -2 -6 -20 -5 -40 1 -20 -4 -40 -11 -46 -7 -6 -11 -24 -8 -45 2 -18
0 -34 -6 -34 -5 0 -9 -16 -8 -35 1 -19 -5 -41 -12 -49 -7 -9 -10 -30 -8 -47 3
-19 0 -33 -7 -36 -7 -2 -11 -18 -10 -36 2 -18 -2 -37 -7 -44 -5 -7 -7 -17 -3
-23 4 -6 0 -21 -8 -33 -8 -12 -14 -35 -13 -52 1 -16 -2 -35 -6 -40 -4 -6 -8
-28 -10 -48 -1 -20 -5 -37 -9 -37 -6 0 -10 -20 -22 -125 -2 -17 -8 -39 -14
-50 -5 -11 -8 -32 -7 -47 2 -16 -2 -28 -7 -28 -5 0 -9 -15 -7 -34 1 -19 -4
-41 -10 -49 -7 -8 -10 -28 -8 -43 3 -16 1 -31 -5 -34 -5 -4 -10 -23 -11 -44
-1 -20 -5 -39 -10 -42 -4 -3 -8 -18 -8 -34 0 -16 -4 -31 -8 -34 -4 -2 -7 -20
-7 -38 1 -18 -3 -36 -7 -39 -5 -3 -10 -21 -10 -40 0 -19 -3 -38 -7 -44 -3 -5
-6 -25 -7 -43 -2 -18 -7 -38 -12 -45 -5 -7 -8 -27 -6 -44 1 -18 -2 -33 -7 -33
-5 0 -9 -18 -9 -39 0 -22 -5 -43 -10 -46 -6 -4 -9 -22 -8 -41 1 -20 -2 -38 -8
-42 -6 -4 -10 -20 -8 -37 1 -16 -3 -35 -8 -42 -5 -6 -11 -31 -14 -55 -7 -73
-10 -86 -20 -100 -6 -7 -9 -25 -8 -40 2 -15 -1 -30 -7 -33 -5 -4 -9 -24 -9
-45 0 -21 -4 -41 -9 -45 -5 -3 -8 -20 -7 -38 2 -17 -2 -35 -7 -38 -5 -4 -10
-25 -11 -48 0 -23 -4 -41 -8 -41 -5 0 -8 -18 -8 -39 0 -22 -5 -43 -11 -46 -6
-4 -8 -22 -6 -39 2 -18 -1 -40 -9 -50 -7 -10 -10 -28 -8 -41 2 -13 0 -27 -6
-30 -14 -9 -13 -105 1 -105 6 0 9 -6 6 -14 -3 -8 1 -17 9 -20 9 -3 13 -10 10
-14 -3 -5 6 -20 19 -32 14 -13 25 -20 25 -17 0 4 11 0 25 -9 14 -9 25 -13 25
-8 0 4 5 3 12 -4 15 -15 64 -16 73 -1 4 6 13 8 20 5 7 -2 22 2 33 9 10 8 22
11 26 8 3 -3 6 -1 6 5 0 6 6 17 13 24 27 27 56 76 50 82 -3 3 -1 6 5 6 7 0 12
6 12 13 0 7 9 19 19 27 11 7 18 17 16 21 -3 3 4 17 15 29 11 12 22 32 26 44 4
11 15 29 25 39 11 10 17 22 14 28 -4 5 -1 9 5 9 5 0 18 16 27 35 9 19 20 32
25 29 4 -3 8 4 8 15 0 12 5 21 10 21 6 0 10 9 10 20 0 11 5 20 10 20 6 0 15
11 20 25 5 14 16 28 25 31 8 3 12 10 9 16 -3 5 4 18 16 28 12 10 19 23 16 28
-3 6 1 13 9 16 8 3 14 9 13 13 -2 11 35 73 44 73 4 0 16 20 27 45 11 25 25 45
30 45 6 0 11 9 11 20 0 11 4 20 10 20 5 0 17 16 26 35 9 19 21 35 26 35 5 0 6
4 3 10 -3 5 -1 10 4 10 6 0 11 6 11 13 0 8 9 24 20 37 11 13 20 29 20 37 0 7
4 13 10 13 5 0 17 17 27 37 9 21 23 44 29 51 7 6 16 21 19 32 3 11 11 20 16
20 5 0 9 6 9 13 0 7 9 19 19 27 11 7 18 17 15 21 -2 4 2 13 9 21 7 7 13 16 13
20 -1 4 7 16 16 28 10 11 14 20 10 20 -4 0 1 7 10 14 10 7 24 29 32 48 8 19
22 40 30 48 9 7 16 17 16 22 0 10 51 81 62 86 4 2 4 10 1 19 -4 11 -2 14 5 9
8 -5 12 0 12 13 0 12 9 26 19 33 11 6 17 18 13 26 -3 9 -1 13 4 10 5 -4 18 13
29 35 11 23 28 50 39 60 11 9 17 20 13 23 -3 3 2 14 11 24 33 37 42 50 64 94
12 25 26 46 30 46 4 0 8 7 8 15 0 8 9 20 19 27 10 6 17 17 14 24 -2 7 5 17 16
24 12 6 21 20 21 30 0 11 4 20 9 20 5 0 12 8 15 17 9 27 29 57 49 77 9 10 15
22 12 27 -4 5 -1 9 5 9 6 0 9 4 5 9 -3 6 4 15 15 21 11 6 20 19 20 29 0 11 7
21 15 25 8 3 15 12 15 19 0 8 9 22 20 32 11 10 17 22 14 26 -3 5 2 12 10 15 9
3 13 10 10 16 -3 5 2 17 13 26 10 9 24 29 32 44 8 15 22 37 33 47 10 11 18 26
18 32 0 7 7 19 15 28 48 53 55 62 55 71 0 13 40 70 60 87 8 7 11 13 6 13 -5 0
-2 8 7 18 23 26 87 123 87 132 0 5 10 16 23 25 12 8 20 18 17 20 -6 6 32 65
42 65 4 0 5 7 2 15 -4 8 -2 15 3 15 6 0 18 16 29 35 10 19 22 35 26 35 5 0 8
6 8 14 0 8 8 22 18 32 9 10 17 20 17 24 0 4 8 14 18 24 9 10 15 22 12 26 -3 5
3 15 15 22 11 7 20 18 20 24 0 6 9 19 20 29 11 10 17 21 15 25 -2 4 4 15 15
25 11 10 17 22 14 26 -3 5 0 9 6 9 5 0 18 16 27 35 9 19 20 32 25 29 4 -3 9 0
9 5 1 6 2 16 3 21 0 6 6 14 13 18 6 4 13 14 15 22 2 8 10 22 18 30 16 17 36
46 47 70 4 8 15 23 26 32 10 9 16 21 13 27 -4 5 3 15 14 21 11 6 18 15 15 21
-4 5 -1 9 4 9 6 0 11 7 11 15 0 8 5 15 10 15 6 0 10 7 10 15 0 8 5 15 11 15 5
0 8 4 5 8 -3 5 4 18 14 30 11 12 20 25 20 30 0 5 9 17 20 27 10 9 19 20 18 24
-1 6 1 13 19 59 11 30 9 67 -5 81 -11 11 -11 15 -1 22 10 6 10 9 -4 15 -9 3
-15 10 -12 14 7 11 -45 61 -56 54 -5 -3 -12 1 -15 9 -3 9 -13 13 -25 10 -10
-3 -19 0 -19 5 0 15 -88 10 -117 -6 -12 -7 -24 -9 -26 -5 -6 10 -79 9 -95 -1
-7 -4 -18 -4 -24 0 -16 10 -77 11 -105 2 -12 -4 -24 -4 -27 0 -6 10 -68 8 -84
-2 -7 -4 -18 -4 -24 0 -16 10 -77 11 -105 2 -13 -4 -25 -3 -29 3 -4 6 -11 5
-21 -3 -25 -20 -551 -20 -575 0 -10 8 -18 12 -18 9 0 -4 -13 7 -30 23 -16 16
-30 36 -30 45 0 8 -3 15 -8 15 -12 0 -7 97 7 114 8 9 10 16 5 16 -4 0 2 10 14
23 12 13 19 27 15 30 -3 4 -1 7 5 7 7 0 12 6 12 14 0 7 7 19 15 26 8 7 12 16
10 21 -3 4 2 16 12 26 10 10 17 27 15 37 -2 10 0 16 6 12 10 -6 27 21 24 37
-1 4 2 7 8 7 5 0 10 9 10 20 0 11 5 20 10 20 6 0 10 7 10 15 0 8 4 15 10 15 5
0 7 6 4 14 -3 7 2 16 11 20 9 3 14 10 10 16 -3 5 3 18 15 30 11 11 20 27 20
36 0 9 5 12 12 8 7 -4 8 -3 4 5 -4 6 2 23 12 39 11 15 20 29 20 32 2 19 23 60
32 60 5 0 10 7 10 15 0 8 5 15 12 15 6 0 8 3 5 6 -3 4 -1 16 5 28 7 11 11 24
10 29 -1 4 2 7 8 7 5 0 10 7 10 15 0 9 7 18 15 21 12 5 13 10 4 20 -9 11 -8
14 4 14 9 0 19 10 23 23 4 12 10 24 14 27 3 3 19 33 35 68 16 34 32 62 37 62
5 0 6 5 3 10 -3 6 -1 10 4 10 6 0 11 7 11 15 0 8 5 15 11 15 6 0 9 6 6 14 -3
8 1 17 9 20 8 3 14 9 13 13 -2 16 14 53 23 53 5 0 7 4 4 9 -3 5 1 14 9 21 9 7
23 29 32 49 9 20 21 39 26 42 5 3 8 10 8 15 -2 18 11 44 21 44 5 0 8 6 5 13
-3 8 3 20 14 28 10 7 19 19 19 26 0 14 40 85 53 94 5 3 9 10 9 15 1 13 15 44
37 79 10 17 16 33 14 38 -2 4 3 7 11 7 10 0 13 6 10 15 -4 8 -1 15 5 15 6 0
11 9 11 20 0 11 5 20 11 20 5 0 8 4 5 9 -3 5 1 15 10 22 16 13 39 58 36 72 -1
4 2 7 7 7 9 0 27 39 23 52 -1 3 5 12 13 18 8 7 15 18 15 25 0 7 6 15 14 18 8
3 17 19 21 36 4 17 11 31 16 31 5 0 9 7 9 15 0 8 5 15 11 15 5 0 7 4 4 10 -5
8 19 57 36 70 5 5 31 48 35 60 1 3 5 15 9 28 4 12 11 22 16 22 5 0 8 3 7 8 -2
13 15 46 32 62 10 8 16 23 14 33 -1 9 1 15 6 12 8 -5 45 73 42 88 -1 4 5 7 13
7 8 0 12 6 9 14 -3 8 3 23 13 35 34 37 40 46 35 59 -2 6 1 12 7 12 6 0 11 9
11 20 0 11 5 20 11 20 5 0 7 5 4 10 -3 6 -1 10 4 10 6 0 11 8 11 18 0 10 9 25
20 35 12 10 18 22 15 27 -3 6 -1 10 4 10 6 0 11 7 11 16 0 9 5 12 12 8 6 -4 8
-3 5 3 -3 5 0 20 7 34 7 13 11 30 8 37 -2 6 1 12 7 12 6 0 11 19 11 45 0 25
-4 45 -10 45 -5 0 -10 10 -10 21 0 34 -109 123 -127 105 -3 -3 -16 -1 -29 4
-13 5 -24 6 -24 2 0 -11 -214 -8 -226 3 -6 6 -107 10 -262 9 -139 0 -252 3
-252 8 0 4 -119 8 -265 8 -146 0 -265 4 -265 8 0 5 -115 8 -255 8 -161 -1
-256 3 -259 9 -2 6 -96 10 -255 10 -139 -1 -255 3 -257 7 -8 13 -514 10 -514
-3z"/>
</g>
</svg>
